<?xml version="1.0" standalone="no"?>
<!DOCTYPE svg PUBLIC "-//W3C//DTD SVG 20010904//EN"
 "http://www.w3.org/TR/2001/REC-SVG-20010904/DTD/svg10.dtd">
<svg version="1.0" xmlns="http://www.w3.org/2000/svg"
 width="200.000000pt" height="200.000000pt" viewBox="0 0 200.000000 200.000000"
 preserveAspectRatio="xMidYMid meet">
<metadata>
Created by potrace 1.16, written by Peter Selinger 2001-2019
</metadata>
<g transform="translate(0.000000,200.000000) scale(0.100000,-0.100000)"
fill="#000000" stroke="none">
<path d="M1836 1534 c-11 -11 -16 -37 -17 -87 -2 -64 -2 -67 -8 -27 -8 59 -16
70 -50 70 -38 0 -51 -17 -51 -67 0 -36 -3 -43 -20 -43 -18 0 -20 7 -20 69 0
54 -4 70 -16 75 -26 10 -424 7 -424 -4 0 -14 -87 -50 -175 -70 -171 -40 -356
-34 -570 17 -129 31 -273 42 -286 21 -5 -7 -9 -155 -9 -328 0 -334 1 -340 47
-340 20 0 23 -5 23 -35 0 -31 -3 -35 -25 -35 -16 0 -25 -6 -25 -15 0 -10 10
-15 30 -15 23 0 30 -4 30 -20 0 -11 4 -20 9 -20 11 0 21 50 21 101 0 34 3 39
23 39 36 0 47 19 47 85 0 103 59 193 158 244 66 34 151 44 315 38 221 -8 316
-39 353 -116 27 -56 14 -134 -62 -363 l-68 -208 -476 -2 -475 -3 0 -50 0 -50
875 0 875 0 0 50 0 50 -117 3 -118 3 0 259 c0 250 1 259 20 265 18 6 20 15 20
91 0 77 2 84 20 84 17 0 20 -7 20 -39 0 -56 30 -82 74 -65 12 5 16 20 16 60 0
30 5 54 10 54 6 0 10 -29 10 -66 0 -36 5 -74 10 -85 13 -23 55 -25 64 -3 12
31 7 469 -6 482 -16 16 -33 15 -52 -4z"/>
</g>
</svg>
